<svg version="1.1" id="logo-BT" xmlns="http://www.w3.org/2000/svg" xmlns:xlink="http://www.w3.org/1999/xlink" x="0px" y="0px"
	 viewBox="0 0 115 100" style="enable-background:new 0 0 115 100;" xml:space="preserve">
<style type="text/css">
	.white{fill:#ffffff;}
</style>
<path id="logo-BT-svg" class="white" d="M29.3,97.8c-0.4,0-0.8-0.1-1.1-0.3c-0.5-0.3-0.5-1-0.2-1.4c0,0,0-0.1,0.1-0.1
	c0.2-0.2,0.5-0.4,0.8-0.4L40.3,91c0.5-0.2,0.8-0.3,1.2-0.5c0.3-0.1,0.6-0.3,0.9-0.3c0.2-0.1,0.3-0.2,0.4-0.3
	c0.1-0.2,0.2-0.3,0.3-0.5c0.2-0.2,0.3-0.4,0.3-0.7c0-0.3,0.1-0.6,0.2-0.9c-14.1,8.3-29.8,8.9-36,1c-0.5-0.7-0.9-1.5-1-2.3
	c-2.6-1.8-4.4-4.4-4.1-8c0.8-6.7,7.9-11.2,12.9-12.2c2-0.5,1.7,0.8,0.7,1s-10.5,4.9-11.4,11c-0.2,2.1,0.5,4.1,1.9,5.6
	c0.6-5.2,5.2-11.8,10.9-14.6c10.9-5.2,25.8-4.3,25.5,3.6c-0.4,4.9-9.5,12.8-21.4,13c-1.9-0.2,0.4-1.2,1-1.2
	c12.7-1.8,16.7-7.4,17.9-11.4c1.6-5.9-10.2-7.4-22.1-2.1c-1.6,0.7-11.4,7.1-9.9,14.3c1.9,1.2,4,2.1,6.2,2.5
	c12.3,1.4,21.6-2.7,29.1-9.6l0-13.9c-3.7,1-7.6-0.1-10.2-3c-1.1-1.1-1.8-2.4-2.2-3.9c-1.3-0.8-2.4-2-3.2-3.2
	c-3.9-6.5-0.6-18.9,15.3-28.5l0.4-0.2l0-10.6H27.3c-1.2,0-2.4,0.2-3.6,0.5c-0.8,0.4-1.3,1.1-1.5,2c-0.1,0.1-0.2,0.2-0.2,0.3
	c0,0.1-0.1,0.2-0.1,0.3l-5.5,13.9c-0.1,0.3-0.2,0.6-0.5,0.8c-0.2,0.1-0.5,0.2-0.8,0.2c-0.3,0-0.6-0.1-0.8-0.3
	c-0.2-0.3-0.3-0.7-0.3-1L13.7,4c0-0.5,0.1-0.9,0.4-1.2c0.2-0.3,0.6-0.4,1-0.4c0.2,0,0.3,0,0.5,0.1c0.1,0,0.2,0.1,0.3,0.2l1,0.7
	l1.4,1.1c1.6,0.8,3.3,1.2,5,1.3C25.5,6,29,6.1,33.6,6.1h32.6c4.7,0,8-0.1,10-0.3C78,5.6,79.8,5,81.3,4C81.6,4,81.8,3.9,82,3.7
	c0.2-0.1,0.4-0.3,0.7-0.5l1-0.7c0.1-0.1,0.2-0.2,0.3-0.2c0.2,0,0.3-0.1,0.5-0.1c0.4,0,0.7,0.1,1,0.4c0.2,0.5,0.3,1,0.3,1.5l0.1,13.7
	c0.3,0.1,0.7,0.1,1,0.2c3.7,0.9,7.3,2.4,10.5,4.4c1.4-0.8,2.8-1.4,4.3-2c3.4-1.1,6.9-1.7,10.5-1.5c1,0,0.4,1-0.3,1.2s-6.8,1.1-9,2.3
	c-0.9,0.5-1.9,1-3.1,1.8c1,0.8,1.8,1.8,2.5,2.8c0.2,0.2,0.1,0.6-0.1,0.7c-0.2,0.1-0.4,0.1-0.6,0c-1-0.9-2-1.8-3.1-2.6
	c-0.7,0.5-1.4,1.1-2.2,1.7c3.9,2.6,6.4,6.2,6.4,10.6c-0.2,11.8-10.6,15.7-20.3,19.6c0,0.6,14.2,6.1,0.3,24.9
	C78,87.9,70.2,92.3,63.9,92.9l6.7,2.6c0.3,0,0.6,0.2,0.9,0.4c0.1,0.2,0.2,0.4,0.2,0.7c0,0.3-0.1,0.6-0.4,0.8
	c-0.3,0.2-0.7,0.3-1.1,0.3L29.3,97.8z M43.5,85v-0.8l0.1-3.6C36,87,26.3,91.9,14.1,89.9c-1.5-0.5-3.1-1-4.5-1.7
	C13.8,94.8,30.5,94.4,43.5,85z M72,69c0,0-20.8,12.5-13.7,19.7c3.1,2.6,10,1.6,19.6-9.6c5.8-7.9,8.4-13.9,4.7-18.4
	c-2.6-3.3-6.2-3.1-8.3-2.9c-0.5,0.1-1.1,0.1-1.6,0c-4.6,7.2-10,13.7-16.2,19.6v1.1c0,0.6,0,1.1,0,1.6c2.3-3.2,6.7-7.1,14.5-11.9
	c0.1,0,0.2-0.1,0.3-0.1C72,68.2,72,69,72,69z M56.5,71.1c6.3-8.2,11.5-15.8,20.1-27.8c2.5-3.6,5.3-7,8.2-10.2h0
	c-0.2,0-0.4-0.1-0.5-0.2c-0.2-0.2-0.4-0.5-0.5-0.8l-0.2-0.4c-1.5,1.2-5.7,4.8-11,13c-3.9,6-9.7,14.7-15.9,22.5L56.5,71.1z
	 M56.5,63.1c5.5-7.3,10.3-14.5,14.3-20.1c3.3-4.9,7.4-9.2,12.1-12.7l-2.6-6.4c-4.8-0.2-9.7,0.5-14.3,2c-3.3,1-6.5,2.3-9.5,3.8
	l0,20.9c0.6-0.4,1.2-0.8,1.8-1.2c2.8-4.6,4.8-9.7,5.6-15c0.3-1.3,1.8-1.7,1.7,0.3c-0.6,4.3-2,8.5-4.1,12.3c3.6-3,7.3-7.5,13.7-17
	c0.3-0.6,1.8-0.2,1.4,0.8c-0.8,1.9-6.3,11.8-15.6,19.2c-0.7,0.6-1.4,1.1-2.2,1.6c-0.7,1.1-1.5,2.2-2.3,3.2L56.5,63.1z M35.3,60.1
	c2.2,2.3,5.2,2.7,8.5,1.8l0-3c-3,0.9-6.2,0.9-9.3,0.1C34.7,59.4,34.9,59.8,35.3,60.1z M43.7,56.7l0-18.7
	c-7.2,6.4-11.3,13.5-10.3,18.6C36,57.8,39.4,58,43.7,56.7z M98.1,36.6c0-2.5-1.3-5.4-4-7.8c-5.1,4.9-9.6,10.5-13.4,16.5
	c-2.5,3.9-4.7,7.3-6.8,10.6C80.4,56.1,97.9,50.5,98.1,36.6z M29.8,53.4c0.3,0.5,0.7,1,1.1,1.5c-0.1-6,4.3-13.6,12.9-20.3l0-5.4
	C33,36.2,25.2,46.2,29.8,53.4z M85.9,31.5c0,0.1,0,0.3,0,0.4c1.7-1.8,3.5-3.5,5.4-5.1c-1.7-1-3.5-1.7-5.4-2.2L85.9,31.5z M56.4,27.2
	c2.9-1.3,5.8-2.4,8.8-3.3c4.7-1.3,9.5-1.8,14.3-1.6l-1.2-2.8c-0.1-0.2-0.2-0.5-0.3-0.7l0-0.1c-7.4,0.2-14.8,1.6-21.7,4.3L56.4,27.2z
	 M93.1,25.3c0.9-0.7,1.8-1.3,2.6-1.8c-2.9-1.8-6.1-3.1-9.4-4c-0.2,0-0.3-0.1-0.5-0.1l0,3.6C88.3,23.5,90.7,24.3,93.1,25.3L93.1,25.3
	z M56.4,19.9c6.6-2.3,13.5-3.3,20.5-3c-0.4-0.5-1-0.8-1.6-1c-1.8-0.4-3.7-0.6-5.6-0.6l-13.3-0.3L56.4,19.9z"/>
</svg>
