<svg version="1.1" id="logo-quiz" xmlns="http://www.w3.org/2000/svg" xmlns:xlink="http://www.w3.org/1999/xlink" x="0px" y="0px"
	 viewBox="0 0 200 85.6" style="enable-background:new 0 0 200 85.6;" xml:space="preserve">
<style type="text/css">
	.white{fill:#ffffff;}
	.black{fill:#000000;}
</style>
<path id="logo-white" class="white" d="M7.4,6.2c0-0.2,0-0.3,0-0.5c0-0.3,0-0.6-0.1-0.9C7.3,4.4,7.2,4.1,6.9,3.9C6.8,3.7,6.6,3.6,6.2,3.4
	C5.9,3.3,5.5,3.1,5.1,3C4.6,2.8,4.2,2.7,3.8,2.5C3.3,2.4,2.9,2.3,2.6,2.2L1.5,1.9h15.8l-1,0.4c-0.3,0.2-0.7,0.3-1.2,0.4
	c-0.4,0.1-0.9,0.2-1.3,0.3c-0.4,0.1-0.8,0.2-1.1,0.4c-0.3,0.2-0.6,0.3-0.7,0.5c-0.3,0.4-0.5,0.8-0.5,1.1c0,0.4-0.1,0.8-0.1,1.4v25.6
	c0,0.3,0,0.7,0.1,1c0,0.3,0.2,0.6,0.4,0.8c0.2,0.2,0.5,0.3,0.9,0.4c0.4,0.1,0.8,0.1,1.2,0.1h5.7c0.5,0,1-0.1,1.6-0.2
	c0.6-0.1,1.1-0.3,1.5-0.6c0.5-0.3,0.9-0.8,1.1-1.3c0.2-0.5,0.5-1.2,0.7-1.8l0.6-1.7l0,7.9H1.5l1.1-0.3c0.3-0.1,0.7-0.2,1.1-0.3
	c0.5-0.1,0.9-0.3,1.3-0.4c0.4-0.2,0.8-0.3,1.2-0.5c0.3-0.2,0.6-0.3,0.7-0.5c0.2-0.3,0.3-0.6,0.4-1c0-0.3,0.1-0.9,0.1-1.6V6.6
	C7.4,6.5,7.4,6.3,7.4,6.2z M33.5,34.7c-0.1,0.2-0.4,0.3-0.7,0.5c-0.3,0.2-0.7,0.3-1.2,0.5c-0.4,0.2-0.9,0.3-1.3,0.4
	c-0.5,0.1-0.8,0.2-1.1,0.3l-1.1,0.3h24.7L53,29l-0.6,1.5c-0.2,0.4-0.3,0.8-0.4,1.1c-0.1,0.4-0.2,0.8-0.4,1.1
	c-0.1,0.3-0.3,0.6-0.4,0.9c-0.2,0.3-0.3,0.4-0.5,0.5c-0.3,0.2-0.6,0.2-1,0.2c-0.2,0-0.3,0-0.5,0c-0.2,0-0.3,0-0.6,0H41
	c-0.2,0-0.4,0-0.6,0c-0.2,0-0.3,0-0.5,0c-0.2,0-0.4,0-0.6,0c-0.2,0-0.4-0.1-0.7-0.3c-0.3-0.2-0.5-0.5-0.6-1c-0.1-0.5-0.1-1-0.1-1.4
	V20.1h6.8c0.5,0,1,0,1.4,0.1c0.4,0,0.8,0.2,1.2,0.4c0.2,0.1,0.4,0.3,0.6,0.6c0.2,0.3,0.3,0.6,0.4,0.9c0.1,0.3,0.2,0.7,0.3,1
	c0.1,0.3,0.2,0.7,0.4,1l0.4,1.1v-11l-1,2c-0.2,0.5-0.5,0.9-0.9,1.2c-0.2,0.2-0.5,0.4-0.8,0.4c-0.3,0.1-0.6,0.1-1,0.1
	c-0.2,0-0.4,0-0.6,0c-0.2,0-0.4,0-0.6,0h-6.6V6.5c0-0.4,0-0.7,0-1.1c0-0.4,0.1-0.6,0.2-0.8c0.2-0.2,0.6-0.3,1-0.3c0.4,0,0.9,0,1.4,0
	h5.7c0.5,0,1,0,1.5,0.1c0.5,0.1,0.9,0.2,1.4,0.5c0.5,0.3,0.8,0.8,1,1.3s0.4,1.1,0.6,1.7l0.7,1.9l0-7.7H28.1l1.1,0.3
	c0.3,0.1,0.7,0.2,1.1,0.3c0.5,0.1,0.9,0.3,1.3,0.4c0.4,0.2,0.8,0.3,1.2,0.5c0.3,0.2,0.6,0.3,0.7,0.5c0.2,0.3,0.3,0.6,0.4,0.9
	c0,0.3,0.1,0.9,0.1,1.6v25.5c0,0.2,0,0.3,0,0.5c0,0.2,0,0.3,0,0.5c0,0.3,0,0.6-0.1,0.9C33.8,34.1,33.7,34.4,33.5,34.7z M87.6,40.3
	c-0.8-0.5-1.5-1-2-1.5c-0.5-0.5-1.1-1-1.8-1.7l-0.9-0.2c-1.6-0.3-3.1-0.9-4.7-1.8c-1.6-0.9-3-2.1-4.3-3.6c-1.3-1.5-2.3-3.2-3.2-5.2
	c-0.8-2-1.2-4.3-1.2-6.8c0-2.5,0.5-4.7,1.4-6.9c0.9-2.1,2.2-4,3.8-5.6c1.6-1.6,3.5-2.9,5.6-3.8s4.4-1.6,6.9-1.7
	c0.2-0.1,0.4-0.1,0.6-0.1c0.2,0,0.4,0,0.6,0c2.2,0,4.5,0.4,6.6,1.3c2.2,0.8,4.1,2,5.9,3.6c1.7,1.6,3.1,3.5,4.1,5.7
	c1,2.2,1.5,4.7,1.5,7.5c-0.1,2.4-0.4,4.6-1.1,6.6c-0.7,2-1.7,3.7-3,5.2c-1.3,1.5-2.8,2.7-4.6,3.7c-1.8,1-3.7,1.7-5.9,2.2l-1.1,0.2
	l0.4,0.8c0.2,0.3,0.6,0.7,1.3,1.1c0.7,0.4,1.5,0.9,2.4,1.2c0.9,0.4,1.8,0.7,2.6,1c0.8,0.3,1.6,0.5,2.4,0.7c0,0,0,0,0,0
	c0,0,0,0,0-0.1c0,0,0-0.1-0.1-0.1c0,0-0.1,0-0.1-0.1c0,0-0.1,0-0.2-0.1c-0.1,0-0.1,0-0.2-0.1c-0.1,0-0.1,0-0.2,0l-0.2,0h2.3
	l-0.1,0.1c0,0-0.1,0-0.2,0.1c-0.1,0-0.1,0-0.2,0c-0.1,0-0.1,0-0.2,0.1c0,0-0.1,0-0.1,0.1c0,0.1-0.1,0.1-0.1,0.2c0,0,0,0.1,0,0.1
	c0.6,0.1,1.2,0.2,1.9,0.3c0.3,0,0.7,0.1,1,0.1v-0.3c0-0.1,0-0.1,0-0.2c0-0.1,0-0.1-0.1-0.2c0,0-0.1,0-0.1-0.1c0,0-0.1,0-0.2-0.1
	c-0.1,0-0.1,0-0.2-0.1c-0.1,0-0.1,0-0.2-0.1l-0.1-0.1h2.1l-0.1,0.1c0,0-0.1,0-0.2,0.1c-0.1,0-0.1,0-0.2,0.1c-0.1,0-0.1,0-0.2,0.1
	c-0.1,0-0.1,0-0.1,0.1c0,0,0,0.1,0,0.1c0,0.1,0,0.1,0,0.2c0,0.1,0,0.1,0,0.2c0,0.1,0,0.1,0,0.1v0.1c0.5,0,0.9,0.1,1.4,0.1
	c0.4,0.1,0.7,0.1,1,0.1c0.3,0,0.6,0,1.1,0.1l1.7,0.2l-1.4,0.7c-0.3,0.2-0.6,0.2-0.9,0.3c-0.3,0-0.6,0-1,0h-1.4c-0.2,0-0.3,0-0.5,0
	v0.5c0,0.4-0.1,0.7-0.2,1c-0.1,0.3-0.3,0.5-0.4,0.6c-0.2,0.2-0.4,0.3-0.6,0.3c-0.2,0.1-0.5,0.1-0.7,0.1c-0.2,0-0.5,0-0.7-0.1
	c-0.2-0.1-0.4-0.2-0.6-0.4c-0.2-0.2-0.3-0.4-0.4-0.6s-0.2-0.5-0.2-0.9v-0.7c-0.4,0-0.8-0.1-1.2-0.1c0,0,0,0,0,0.1c0,0,0,0.1,0,0.1
	c0,0.3,0,0.6-0.1,0.8s-0.2,0.5-0.3,0.6c-0.1,0.2-0.3,0.3-0.5,0.5c-0.2,0.1-0.3,0.2-0.5,0.3c-0.2,0.1-0.3,0.1-0.5,0.2
	c-0.1,0-0.3,0.1-0.4,0.1c-0.1,0-0.1,0-0.2,0c-0.1,0-0.2,0-0.2,0c-0.1,0-0.2,0-0.3,0c-0.1,0-0.2,0-0.3,0c-0.1,0-0.2,0-0.3,0
	c-0.1,0-0.2,0-0.2,0l-1.4,0l0.1-0.1c0,0,0.1,0,0.2-0.1c0.1,0,0.1,0,0.2-0.1c0.1,0,0.1,0,0.2-0.1c0,0,0.1-0.1,0.1-0.1
	c0-0.1,0.1-0.1,0.1-0.2s0-0.1,0-0.2v-2.9c0,0-0.1,0-0.1,0c-1.3-0.4-2.5-0.8-3.7-1.2C89.5,41.4,88.5,40.9,87.6,40.3z M100.5,44.1v0.7
	c0,0.3,0,0.5,0.1,0.7c0.1,0.2,0.1,0.3,0.3,0.5c0.1,0.1,0.2,0.2,0.4,0.3c0.2,0.1,0.3,0.1,0.5,0.2c0,0,0.1,0,0.1,0c0,0,0.1,0,0.1,0
	c0.2,0,0.4,0,0.5-0.1c0.2-0.1,0.3-0.2,0.4-0.3c0.1-0.1,0.2-0.3,0.3-0.5c0.1-0.2,0.1-0.4,0.1-0.6v-0.7c-0.2,0-0.3,0-0.5,0
	C102.1,44.2,101.3,44.2,100.5,44.1z M98.2,44.3c0-0.2,0-0.3-0.1-0.5c-1.1-0.2-2.2-0.4-3.2-0.6v1V46c0,0.1,0,0.1,0,0.2
	c0,0.1,0.1,0.1,0.1,0.1c0,0,0.1,0,0.3,0.1c0.1,0,0.3,0,0.5,0c0.2,0,0.4,0,0.5,0c0.2,0,0.3-0.1,0.4-0.1c0.1,0,0.2-0.1,0.3-0.1
	c0.1,0,0.2-0.1,0.3-0.2c0.1-0.1,0.2-0.1,0.3-0.2c0.1-0.1,0.2-0.2,0.3-0.3s0.1-0.3,0.2-0.5C98.2,44.8,98.2,44.6,98.2,44.3z M87.4,35
	c0.2,0,0.3,0,0.5,0c0.2,0,0.3,0,0.5,0c1.8,0,3.5-0.4,5.2-1.1c1.7-0.7,3.2-1.7,4.5-3.1c1.3-1.3,2.4-2.9,3.2-4.7
	c0.8-1.8,1.2-3.8,1.2-5.9c0-2.1-0.4-4.2-1.1-6.2s-1.8-3.7-3.2-5.2c-1.4-1.5-3-2.7-4.9-3.6c-1.9-0.9-3.9-1.3-6.2-1.3
	c-2.1,0-4,0.5-5.7,1.3c-1.7,0.8-3.2,1.9-4.4,3.3c-1.2,1.4-2.1,3-2.8,4.8c-0.7,1.8-1,3.8-0.9,5.8c0,2.2,0.4,4.2,1.1,6.1
	c0.7,1.8,1.7,3.5,3,4.8c1.3,1.4,2.7,2.5,4.5,3.3C83.5,34.4,85.4,34.9,87.4,35z M128.3,37.4c1.8,0,3.5-0.2,5.1-0.7
	c1.6-0.5,3.1-1.3,4.3-2.4c1.3-1.1,2.3-2.6,3-4.4c0.8-1.8,1.1-4.1,1.1-6.8V8.4c0-0.2,0-0.4,0-0.8c0-0.4,0-0.8,0.1-1.3
	c0-0.4,0.1-0.9,0.2-1.3c0.1-0.4,0.2-0.7,0.3-0.8c0.1-0.2,0.4-0.3,0.7-0.5c0.4-0.1,0.8-0.3,1.2-0.4c0.4-0.1,0.9-0.3,1.3-0.4
	c0.4-0.1,0.8-0.3,1.1-0.4l0.9-0.5h-14.5l1,0.5c0.3,0.2,0.7,0.3,1.1,0.4c0.4,0.1,0.9,0.3,1.3,0.4c0.4,0.1,0.8,0.3,1.2,0.4
	c0.3,0.2,0.6,0.3,0.7,0.5c0.3,0.4,0.5,0.9,0.5,1.4c0,0.5,0.1,0.9,0.1,1.3v17.5c0,1.6-0.3,3.1-0.8,4.4c-0.5,1.3-1.2,2.4-2.1,3.4
	c-0.9,0.9-1.9,1.6-3.1,2.1c-1.2,0.5-2.4,0.7-3.7,0.7c-0.2,0-0.5,0-0.7,0c-0.2,0-0.5,0-0.7-0.1c-1.3-0.2-2.6-0.6-3.7-1
	c-1.1-0.5-2.1-1.1-2.8-2c-0.8-0.9-1.4-1.9-1.8-3.3c-0.4-1.3-0.7-2.9-0.7-4.8V6.5c0-0.5,0-1,0.1-1.4c0-0.4,0.2-0.8,0.5-1.1
	c0.2-0.2,0.4-0.4,0.7-0.5c0.3-0.2,0.7-0.3,1.1-0.4c0.4-0.1,0.8-0.2,1.3-0.3c0.4-0.1,0.8-0.2,1.2-0.4l1-0.4h-15.8l1.1,0.3
	c0.3,0.1,0.7,0.2,1.1,0.3c0.5,0.1,0.9,0.3,1.3,0.4c0.4,0.2,0.8,0.3,1.2,0.5c0.3,0.2,0.6,0.3,0.7,0.5c0.2,0.2,0.4,0.5,0.4,0.8
	c0.1,0.3,0.1,0.6,0.1,0.9c0,0.2,0,0.3,0,0.5c0,0.2,0,0.3,0,0.5v17c0,2.4,0.4,4.5,1.1,6.2c0.7,1.7,1.7,3.1,2.9,4.3
	c1.2,1.1,2.6,1.9,4.2,2.5C124.9,37.1,126.6,37.4,128.3,37.4z M155.8,34.7c-0.1,0.2-0.4,0.3-0.7,0.5c-0.3,0.2-0.7,0.3-1.2,0.5
	c-0.4,0.2-0.9,0.3-1.3,0.4c-0.5,0.1-0.8,0.2-1.1,0.3l-1.1,0.3h15.8l-1-0.4c-0.3-0.1-0.7-0.2-1.2-0.4c-0.4-0.1-0.9-0.2-1.3-0.4
	c-0.4-0.1-0.8-0.2-1.1-0.4c-0.3-0.1-0.6-0.3-0.7-0.5c-0.3-0.4-0.5-0.8-0.5-1.2c0-0.4-0.1-0.8-0.1-1.3V6.5c0-0.5,0-1,0.1-1.4
	c0-0.4,0.2-0.8,0.5-1.1c0.2-0.2,0.4-0.4,0.7-0.5c0.3-0.2,0.7-0.3,1.1-0.4c0.4-0.1,0.8-0.2,1.3-0.3c0.4-0.1,0.8-0.2,1.2-0.4l1-0.4
	h-15.8l1.1,0.3c0.3,0.1,0.7,0.2,1.1,0.3c0.5,0.1,0.9,0.3,1.3,0.4c0.4,0.2,0.8,0.3,1.2,0.5c0.3,0.2,0.6,0.3,0.7,0.5
	c0.2,0.2,0.4,0.5,0.4,0.8c0.1,0.3,0.1,0.6,0.1,0.9c0,0.2,0,0.3,0,0.5c0,0.2,0,0.3,0,0.5v25.3c0,0.2,0,0.3,0,0.5c0,0.2,0,0.3,0,0.5
	c0,0.3,0,0.6-0.1,0.9C156.1,34.1,156,34.4,155.8,34.7z M195.7,30.9c-0.2,0.4-0.4,0.7-0.7,1.1c-0.3,0.4-0.6,0.7-1,1.1
	c-0.4,0.3-0.8,0.6-1.3,0.8c-0.5,0.2-0.9,0.3-1.2,0.4c-0.4,0.1-0.8,0.1-1.2,0.1h-15.4c1.7-2.5,3.3-4.7,4.7-6.8c1.4-2.1,2.8-4.1,4.1-6
	c1.4-2,2.8-3.9,4.2-6c1.4-2,3.1-4.2,4.9-6.7c0.5-0.7,1-1.3,1.4-1.9c0.4-0.6,0.9-1.1,1.3-1.7c0.4-0.5,0.8-1.1,1.2-1.7
	c0.4-0.6,0.9-1.2,1.4-1.9h-27.2L169,1.4l0.1,9.8l0.7-2.3c0.1-0.3,0.2-0.6,0.3-1.1c0.1-0.4,0.2-0.8,0.4-1.3s0.3-0.8,0.4-1.1
	c0.2-0.3,0.3-0.6,0.5-0.7c0.1-0.1,0.3-0.2,0.7-0.3c0.3-0.1,0.7-0.1,1-0.2c0.4-0.1,0.7-0.1,1.1-0.1c0.4,0,0.7,0,0.9,0h16.2
	l-22.9,32.4h24.8l1.3,0.7l3.1-9l-1.3,1.7C196.1,30.3,195.9,30.6,195.7,30.9z M4.2,53.5l-1.7-0.7l0.2,8.8l0.4-1.4
	c0.1-0.4,0.2-0.8,0.3-1.2c0.1-0.4,0.2-0.9,0.3-1.2C3.9,57.3,4,57,4.2,56.6c0.2-0.3,0.3-0.5,0.6-0.7c0.2-0.1,0.4-0.2,0.5-0.2
	c0.2,0,0.3,0,0.6,0H12v23.5c0,0.1,0,0.3,0,0.4c0,0.1,0,0.3,0,0.4c0,0.2,0,0.5-0.1,0.8c-0.1,0.3-0.2,0.5-0.3,0.8
	c-0.1,0.1-0.3,0.3-0.6,0.4c-0.3,0.1-0.6,0.3-1,0.4c-0.4,0.1-0.7,0.3-1.1,0.4c-0.4,0.1-0.7,0.2-1,0.3L7,83.3h13.5l-0.9-0.4
	c-0.3-0.1-0.6-0.2-1-0.3c-0.4-0.1-0.7-0.2-1.1-0.3c-0.4-0.1-0.7-0.2-1-0.3c-0.3-0.1-0.5-0.3-0.6-0.4c-0.3-0.4-0.4-0.7-0.5-1.1
	c0-0.3-0.1-0.7-0.1-1.1V55.8h5.2c0.4,0,0.7,0,1,0s0.6,0.1,0.9,0.2c0.2,0.1,0.5,0.3,0.6,0.5c0.2,0.3,0.3,0.6,0.5,0.9
	c0.1,0.3,0.3,0.7,0.4,1.1c0.1,0.4,0.2,0.8,0.3,1.1l0.7,2.1v-9l-2,0.8H4.2z M56.6,55.2c0.1-0.2,0.3-0.3,0.6-0.4s0.6-0.2,1-0.3
	c0.4-0.1,0.7-0.2,1.1-0.3c0.4-0.1,0.7-0.2,1-0.3l0.8-0.4H47.6l0.9,0.3c0.3,0.1,0.6,0.2,1,0.3c0.4,0.1,0.8,0.2,1.1,0.4
	c0.4,0.1,0.7,0.3,1,0.4c0.3,0.1,0.5,0.3,0.6,0.4c0.2,0.2,0.3,0.5,0.3,0.8c0,0.3,0.1,0.8,0.1,1.4v9.3H35.6v-9.3c0-0.5,0-0.8,0.1-1.2
	c0-0.3,0.2-0.7,0.5-1c0.1-0.2,0.3-0.3,0.6-0.4s0.6-0.2,1-0.3c0.4-0.1,0.7-0.2,1.1-0.3c0.4-0.1,0.7-0.2,1-0.3l0.8-0.4H27.2l0.9,0.3
	c0.3,0.1,0.6,0.2,1,0.3c0.4,0.1,0.8,0.2,1.1,0.4c0.4,0.1,0.7,0.3,1,0.4c0.3,0.1,0.5,0.3,0.6,0.4c0.2,0.2,0.3,0.5,0.4,0.7
	c0.1,0.3,0.1,0.5,0.1,0.8c0,0.1,0,0.3,0,0.4c0,0.1,0,0.3,0,0.4v21.7c0,0.1,0,0.3,0,0.4c0,0.1,0,0.3,0,0.4c0,0.3,0,0.5-0.1,0.8
	c-0.1,0.3-0.2,0.5-0.4,0.8c-0.1,0.1-0.3,0.3-0.6,0.4c-0.3,0.1-0.6,0.3-1,0.4c-0.4,0.1-0.8,0.3-1.1,0.4c-0.4,0.1-0.7,0.2-1,0.3
	l-0.9,0.3h13.5l-0.8-0.4c-0.3-0.1-0.6-0.2-1-0.3c-0.4-0.1-0.7-0.2-1.1-0.3c-0.4-0.1-0.7-0.2-1-0.3s-0.5-0.3-0.6-0.4
	c-0.3-0.4-0.4-0.7-0.5-1.1c0-0.3-0.1-0.7-0.1-1.1V69.3h17.1v10.1c0,0.6,0,1.1-0.1,1.4c0,0.3-0.2,0.6-0.3,0.8
	c-0.1,0.1-0.3,0.3-0.6,0.4c-0.3,0.1-0.6,0.3-1,0.4c-0.4,0.1-0.8,0.3-1.1,0.4c-0.4,0.1-0.7,0.2-1,0.3l-0.9,0.3h13.5l-0.8-0.4
	c-0.3-0.1-0.6-0.2-1-0.3c-0.4-0.1-0.7-0.2-1.1-0.3c-0.4-0.1-0.7-0.2-1-0.3s-0.5-0.3-0.6-0.4c-0.2-0.4-0.3-0.7-0.4-1.1
	c0-0.3-0.1-0.7-0.1-1.1l0-22c0-0.5,0-0.8,0.1-1.2C56.2,55.9,56.3,55.6,56.6,55.2z M83.4,79c-0.1,0.3-0.2,0.6-0.3,0.9
	c-0.1,0.3-0.2,0.6-0.4,0.8c-0.1,0.2-0.3,0.4-0.4,0.5c-0.2,0.1-0.5,0.2-0.8,0.2c-0.1,0-0.3,0-0.4,0c-0.1,0-0.3,0-0.5,0h-6.5
	c-0.2,0-0.4,0-0.5,0c-0.1,0-0.3,0-0.4,0c-0.2,0-0.4,0-0.5,0c-0.2,0-0.4-0.1-0.6-0.2c-0.3-0.1-0.4-0.4-0.5-0.9
	c-0.1-0.5-0.1-0.9-0.1-1.2v-9.9h5.8c0.5,0,0.8,0,1.2,0.1c0.3,0,0.7,0.2,1.1,0.4c0.2,0.1,0.4,0.3,0.5,0.5c0.1,0.2,0.3,0.5,0.4,0.8
	c0.1,0.3,0.2,0.6,0.3,0.9c0.1,0.3,0.2,0.6,0.3,0.8l0.4,1v-9.5l-0.8,1.7c-0.2,0.4-0.5,0.8-0.8,1c-0.2,0.2-0.5,0.3-0.7,0.4
	c-0.3,0.1-0.5,0.1-0.8,0.1c-0.2,0-0.3,0-0.5,0c-0.2,0-0.4,0-0.5,0h-5.7v-9.6c0-0.3,0-0.6,0-1c0-0.3,0.1-0.5,0.2-0.7
	c0.2-0.2,0.5-0.3,0.9-0.3c0.4,0,0.8,0,1.2,0h4.9c0.4,0,0.9,0,1.3,0.1c0.4,0.1,0.8,0.2,1.2,0.4c0.4,0.3,0.7,0.7,0.9,1.1
	c0.2,0.4,0.3,0.9,0.5,1.4l0.6,1.6l0-6.6h-20l0.9,0.3c0.3,0.1,0.6,0.2,1,0.3c0.4,0.1,0.8,0.2,1.1,0.4c0.4,0.1,0.7,0.3,1,0.4
	c0.3,0.1,0.5,0.3,0.6,0.4c0.2,0.2,0.3,0.5,0.3,0.8c0,0.3,0.1,0.8,0.1,1.4v21.8c0,0.1,0,0.3,0,0.4c0,0.1,0,0.3,0,0.4
	c0,0.3,0,0.5-0.1,0.8c-0.1,0.3-0.2,0.5-0.4,0.8c-0.1,0.1-0.3,0.3-0.6,0.4c-0.3,0.1-0.6,0.3-1,0.4c-0.4,0.1-0.8,0.3-1.1,0.4
	c-0.4,0.1-0.7,0.2-1,0.3l-0.9,0.3h21.1l0.2-6.6L83.8,78C83.6,78.3,83.5,78.7,83.4,79z M117.4,82.9l0.8,0.4h-11.8l1-0.4
	c0.2-0.1,0.5-0.2,0.7-0.3s0.6-0.2,0.8-0.3c0.3-0.1,0.5-0.3,0.7-0.4c0.2-0.1,0.3-0.3,0.4-0.5c0-0.4-0.1-0.8-0.2-1.3
	c-0.1-0.5-0.3-0.9-0.4-1.2l-2.7-7.6H97l-2.8,7.6c-0.1,0.2-0.2,0.5-0.2,0.7c-0.1,0.3-0.1,0.5-0.2,0.8c-0.1,0.3-0.1,0.5-0.1,0.7
	c0,0.2,0,0.3,0,0.4c0.1,0.3,0.5,0.6,1,0.8c0.6,0.2,1.1,0.4,1.6,0.6l1,0.4H86.5l0.9-0.3c0.3-0.1,0.6-0.2,0.9-0.3
	c0.4-0.1,0.7-0.3,1-0.4c0.3-0.1,0.6-0.3,0.9-0.5c0.3-0.2,0.4-0.3,0.5-0.6c0.2-0.3,0.3-0.7,0.4-0.9c0.1-0.3,0.2-0.6,0.4-1
	c0.6-1.4,1.2-2.9,1.9-4.5c0.6-1.6,1.3-3.2,1.9-4.8c0.6-1.6,1.2-3.1,1.8-4.6c0.6-1.5,1.1-2.9,1.6-4.1c0.5-1.2,0.9-2.3,1.2-3.2
	c0.3-0.9,0.5-1.5,0.7-1.9c0.2-0.5,0.3-0.9,0.4-1.3c0.1-0.4,0.2-0.8,0.3-1.4h2.7c0.1,0.4,0.2,0.8,0.3,1.1c0.1,0.3,0.2,0.7,0.3,1.1
	c0.3,0.9,0.6,2,1.1,3.4c0.5,1.4,1,2.9,1.6,4.5c0.6,1.6,1.2,3.3,1.8,5c0.6,1.7,1.2,3.3,1.8,4.7c0.5,1.5,1,2.7,1.5,3.8
	c0.4,1.1,0.7,1.8,0.9,2.2s0.3,0.7,0.5,1c0.1,0.3,0.3,0.6,0.5,0.9c0.2,0.4,0.7,0.7,1.3,1C116.1,82.4,116.7,82.7,117.4,82.9z
	 M105.9,69.3l-4-10.6l-4,10.6H105.9z M121.8,53.5l-1.7-0.7l0.2,8.8l0.4-1.4c0.1-0.4,0.2-0.8,0.3-1.2c0.1-0.4,0.2-0.9,0.3-1.2
	c0.1-0.4,0.3-0.7,0.4-1.1s0.3-0.5,0.6-0.7c0.2-0.1,0.4-0.2,0.5-0.2c0.2,0,0.3,0,0.6,0h6.2v23.5c0,0.1,0,0.3,0,0.4c0,0.1,0,0.3,0,0.4
	c0,0.2,0,0.5-0.1,0.8c-0.1,0.3-0.2,0.5-0.3,0.8c-0.1,0.1-0.3,0.3-0.6,0.4c-0.3,0.1-0.6,0.3-1,0.4c-0.4,0.1-0.7,0.3-1.1,0.4
	c-0.4,0.1-0.7,0.2-1,0.3l-0.9,0.3h13.5l-0.9-0.4c-0.3-0.1-0.6-0.2-1-0.3c-0.4-0.1-0.7-0.2-1.1-0.3c-0.4-0.1-0.7-0.2-1-0.3
	c-0.3-0.1-0.5-0.3-0.6-0.4c-0.3-0.4-0.4-0.7-0.5-1.1c0-0.3-0.1-0.7-0.1-1.1V55.8h5.2c0.4,0,0.7,0,1,0s0.6,0.1,0.9,0.2
	c0.2,0.1,0.5,0.3,0.6,0.5c0.2,0.3,0.3,0.6,0.5,0.9c0.1,0.3,0.3,0.7,0.4,1.1c0.1,0.4,0.2,0.8,0.3,1.1l0.7,2.1v-9l-2,0.8H121.8z
	 M172,83.1l1,0.5l-1.3,0.3c-0.7,0-1.4-0.1-2-0.2c-0.7-0.1-1.3-0.3-1.9-0.6c-0.5-0.2-1-0.5-1.6-1c-0.6-0.5-1.2-1.1-1.8-1.7
	c-0.6-0.7-1.3-1.4-2-2.2c-0.7-0.8-1.4-1.5-2-2.2l-5.8-6.2h-1.1v9.5c0,0.4,0,0.8,0.1,1.1c0,0.3,0.2,0.7,0.5,1.1
	c0.1,0.2,0.3,0.3,0.6,0.4c0.3,0.1,0.6,0.2,1,0.3s0.7,0.2,1.1,0.3c0.4,0.1,0.7,0.2,1,0.3l0.8,0.4h-13.5L146,83c0.3-0.1,0.6-0.2,1-0.3
	c0.4-0.1,0.8-0.2,1.1-0.4c0.4-0.1,0.7-0.3,1-0.4c0.3-0.1,0.5-0.3,0.6-0.4c0.2-0.2,0.3-0.5,0.4-0.8c0.1-0.3,0.1-0.5,0.1-0.8
	c0-0.1,0-0.3,0-0.4c0-0.1,0-0.3,0-0.4V57.4c0-0.4,0-0.7-0.1-1c-0.1-0.3-0.2-0.6-0.4-0.9c-0.1-0.2-0.3-0.3-0.6-0.5
	c-0.3-0.2-0.6-0.3-1-0.5c-0.3-0.1-0.7-0.3-1.1-0.4c-0.4-0.1-0.7-0.3-1-0.4l-0.9-0.3h7.3c0.8,0,1.5,0,2.2-0.1c0.7,0,1.4-0.1,2.1-0.1
	c0.3,0,0.6,0,0.9,0c0.3,0,0.6,0,1,0.1c0.9,0.1,1.8,0.3,2.7,0.6c0.9,0.4,1.7,0.9,2.5,1.6c0.7,0.7,1.3,1.5,1.8,2.5
	c0.5,1,0.7,2.2,0.7,3.5c0,1.4-0.3,2.5-0.8,3.4s-1.1,1.7-1.8,2.2c-0.7,0.6-1.5,1-2.3,1.3c-0.8,0.3-1.5,0.6-2.1,0.7l-0.8,0.2l4.4,5
	c0.5,0.6,1,1.1,1.4,1.6c0.4,0.5,0.9,1,1.3,1.4s0.9,0.9,1.3,1.4c0.4,0.5,0.9,0.9,1.4,1.4c0.3,0.3,0.6,0.6,0.8,0.8
	c0.2,0.2,0.5,0.4,0.7,0.6c0.3,0.2,0.6,0.4,0.9,0.6C171,82.6,171.4,82.8,172,83.1z M158.3,67.6c0.9-0.3,1.8-0.8,2.5-1.3
	c0.7-0.6,1.2-1.3,1.6-2.1c0.4-0.8,0.6-1.8,0.6-2.9c0-0.9-0.2-1.7-0.6-2.4s-0.8-1.4-1.3-1.9c-0.5-0.5-1.1-0.9-1.8-1.2
	c-0.7-0.3-1.3-0.5-2-0.5c-0.3,0-0.7,0-1,0c-0.3,0-0.7,0-1,0.1c-0.3,0-0.6,0.1-0.8,0.1c-0.2,0.1-0.4,0.1-0.5,0.2
	c-0.2,0.2-0.4,0.4-0.4,0.7c0,0.3-0.1,0.6-0.1,0.9v10.9l1.9,0C156.4,68.1,157.4,67.9,158.3,67.6z M196,79c-0.1,0.3-0.2,0.6-0.3,0.9
	c-0.1,0.3-0.2,0.6-0.4,0.8c-0.1,0.2-0.3,0.4-0.4,0.5c-0.2,0.1-0.5,0.2-0.8,0.2c-0.1,0-0.3,0-0.4,0c-0.1,0-0.3,0-0.5,0h-6.5
	c-0.2,0-0.4,0-0.5,0c-0.1,0-0.3,0-0.4,0c-0.2,0-0.4,0-0.5,0c-0.2,0-0.4-0.1-0.6-0.2c-0.3-0.1-0.4-0.4-0.5-0.9
	c-0.1-0.5-0.1-0.9-0.1-1.2v-9.9h5.8c0.5,0,0.8,0,1.2,0.1c0.3,0,0.7,0.2,1.1,0.4c0.2,0.1,0.4,0.3,0.5,0.5c0.1,0.2,0.3,0.5,0.4,0.8
	s0.2,0.6,0.3,0.9c0.1,0.3,0.2,0.6,0.3,0.8l0.4,1v-9.5l-0.8,1.7c-0.2,0.4-0.5,0.8-0.8,1c-0.2,0.2-0.5,0.3-0.7,0.4
	c-0.3,0.1-0.5,0.1-0.8,0.1c-0.2,0-0.3,0-0.5,0s-0.4,0-0.5,0H184v-9.6c0-0.3,0-0.6,0-1c0-0.3,0.1-0.5,0.2-0.7
	c0.2-0.2,0.5-0.3,0.9-0.3c0.4,0,0.8,0,1.2,0h4.9c0.4,0,0.9,0,1.3,0.1c0.4,0.1,0.8,0.2,1.2,0.4c0.4,0.3,0.7,0.7,0.9,1.1
	c0.2,0.4,0.3,0.9,0.5,1.4l0.6,1.6l0-6.6h-20l0.9,0.3c0.3,0.1,0.6,0.2,1,0.3c0.4,0.1,0.8,0.2,1.1,0.4c0.4,0.1,0.7,0.3,1,0.4
	c0.3,0.1,0.5,0.3,0.6,0.4c0.2,0.2,0.3,0.5,0.3,0.8c0,0.3,0.1,0.8,0.1,1.4v21.8c0,0.1,0,0.3,0,0.4c0,0.1,0,0.3,0,0.4
	c0,0.3,0,0.5-0.1,0.8c-0.1,0.3-0.2,0.5-0.4,0.8c-0.1,0.1-0.3,0.3-0.6,0.4c-0.3,0.1-0.6,0.3-1,0.4c-0.4,0.1-0.8,0.3-1.1,0.4
	c-0.4,0.1-0.7,0.2-1,0.3l-0.9,0.3h21.1l0.2-6.6l-0.5,1.3C196.2,78.3,196.1,78.7,196,79z M2.5,45.5H78v-2.2H2.5V45.5z M120.2,45.5
	h75.5v-2.2h-75.5V45.5z"/>
</svg>
